<svg width="257" height="236" viewBox="0 0 257 236" fill="none" xmlns="http://www.w3.org/2000/svg">
<g opacity="0.65">
<path d="M201.459 160.673L201.434 188.758L177.982 202.762L154.556 188.681L154.581 160.595L178.033 146.591L201.459 160.673ZM202.05 189.024L202.036 160.241L177.988 145.794L153.954 160.131L153.968 188.914L178.016 203.36L202.05 189.024Z" fill="#E5E5E4"/>
<path d="M225.19 174.837L225.165 202.923L201.713 216.927L178.287 202.845L178.313 174.76L201.764 160.756L225.19 174.837ZM225.786 203.288L225.773 174.505L201.725 160.058L177.691 174.395L177.705 203.178L201.752 217.624L225.786 203.288Z" fill="#D2D2D2"/>
<path d="M225.199 146.453L225.174 174.538L201.722 188.542L178.296 174.461L178.321 146.375L201.773 132.371L225.199 146.453ZM225.795 174.903L225.781 146.121L201.734 131.674L177.7 146.01L177.714 174.793L201.761 189.24L225.795 174.903Z" fill="#F0F0F0"/>
<path d="M82.6686 146.326L82.6431 174.412L59.1915 188.416L35.7653 174.334L35.7909 146.249L59.2425 132.245L82.6686 146.326ZM83.3644 174.771L83.3508 145.988L59.3032 131.542L35.2693 145.878L35.2829 174.661L59.3305 189.108L83.3644 174.771Z" fill="#F0F0F0"/>
<path d="M82.6604 174.711L82.6349 202.796L59.1832 216.8L35.7571 202.719L35.7826 174.633L59.2343 160.629L82.6604 174.711ZM83.2563 203.161L83.2426 174.378L59.1951 159.932L35.1612 174.268L35.1749 203.051L59.2224 217.498L83.2563 203.161Z" fill="#E5E5E4"/>
<path d="M106.397 188.975L106.372 217.06L82.92 231.064L59.4939 216.983L59.5194 188.897L82.9711 174.893L106.397 188.975ZM106.993 217.425L106.979 188.642L82.9319 174.196L58.898 188.532L58.9117 217.315L82.9592 231.762L106.993 217.425Z" fill="#F0F0F0"/>
<path d="M58.9204 188.931L58.8949 217.016L35.4432 231.02L12.0171 216.939L12.0426 188.853L35.4943 174.849L58.9204 188.931ZM59.5163 217.381L59.5026 188.598L35.4551 174.152L11.4212 188.488L11.4349 217.271L35.4824 231.718L59.5163 217.381Z" fill="#D2D2D2"/>
<path d="M201.486 18.4522L201.461 46.5377L178.009 60.5417L154.583 46.4602L154.609 18.3747L178.06 4.3707L201.486 18.4522ZM202.182 46.8971L202.168 18.1142L178.121 3.66769L154.087 18.0041L154.101 46.787L178.148 61.2335L202.182 46.8971Z" fill="#D5D5D5"/>
<path d="M177.746 32.672L177.721 60.7575L154.269 74.7615L130.843 60.68L130.869 32.5945L154.32 18.5905L177.746 32.672ZM178.442 61.117L178.428 32.3341L154.381 17.8875L130.347 32.2239L130.361 61.0069L154.408 75.4534L178.442 61.117Z" fill="#D2D2D2"/>
<path d="M106.53 46.8481L106.504 74.9336L83.0524 88.9376L59.6262 74.8561L59.6517 46.7706L83.1034 32.7666L106.53 46.8481ZM107.125 75.2986L107.112 46.5157L83.0643 32.0692L59.0303 46.4056L59.044 75.1885L83.0915 89.635L107.125 75.2986Z" fill="#D2D2D2"/>
<path d="M82.7805 89.4525L82.755 117.538L59.3033 131.542L35.8772 117.46L35.9027 89.375L59.3544 75.371L82.7805 89.4525ZM83.3764 117.903L83.3628 89.1201L59.3152 74.6735L35.2813 89.0099L35.295 117.793L59.3425 132.239L83.3764 117.903Z" fill="#F0F0F0"/>
<path d="M59.0408 103.672L59.0153 131.758L35.5636 145.762L12.1375 131.68L12.163 103.595L35.6147 89.5909L59.0408 103.672ZM59.6367 132.123L59.623 103.34L35.5755 88.8935L11.5415 103.23L11.5552 132.013L35.6027 146.459L59.6367 132.123Z" fill="#D2D2D2"/>
<path d="M58.932 132.063L58.9066 160.148L35.455 174.152L12.0289 160.071L12.0543 131.985L35.5059 117.981L58.932 132.063ZM59.6279 160.507L59.6142 131.725L35.5666 117.278L11.5328 131.614L11.5464 160.397L35.594 174.844L59.6279 160.507Z" fill="#F0F0F0"/>
<path d="M153.997 75.2766L153.972 103.362L130.52 117.366L107.094 103.285L107.119 75.1991L130.577 61.2947L153.997 75.2766ZM154.593 103.727L154.58 74.9442L130.532 60.4977L106.498 74.8341L106.512 103.617L130.559 118.063L154.593 103.727Z" fill="#D5D5D5"/>
<path d="M106.521 75.2326L106.495 103.318L83.0436 117.322L59.6175 103.241L59.6429 75.1551L83.0946 61.1511L106.521 75.2326ZM107.117 103.683L107.103 74.9002L83.0555 60.4537L59.0215 74.7901L59.0352 103.573L83.0827 118.02L107.117 103.683Z" fill="#939393"/>
<path d="M177.737 61.0564L177.712 89.1419L154.26 103.146L130.834 89.0644L130.86 60.979L154.311 46.975L177.737 61.0564ZM178.333 89.507L178.32 60.7241L154.272 46.2775L130.238 60.6139L130.252 89.3968L154.305 103.943L178.333 89.507Z" fill="#F0F0F0"/>
<path d="M201.474 75.3205L201.449 103.406L177.997 117.41L154.571 103.329L154.596 75.243L178.048 61.239L201.474 75.3205ZM202.07 103.771L202.056 74.9881L178.009 60.5416L153.975 74.878L153.989 103.661L178.036 118.107L202.07 103.771Z" fill="#E5E5E4"/>
<path d="M201.483 46.9362L201.457 75.0217L178.006 89.0257L154.58 74.9442L154.605 46.8587L178.057 32.8547L201.483 46.9362ZM202.173 75.2815L202.159 46.4986L178.112 32.0521L154.078 46.3885L154.092 75.1714L178.045 89.7231L202.173 75.2815Z" fill="#E5E5E4"/>
<path d="M225.214 61.1005L225.188 89.186L201.737 103.19L178.311 89.1085L178.336 61.023L201.788 47.019L225.214 61.1005ZM225.81 89.551L225.796 60.7681L201.749 46.3216L177.715 60.658L177.728 89.4409L201.776 103.887L225.81 89.551Z" fill="#F0F0F0"/>
<path d="M248.943 103.749L248.917 131.834L225.465 145.838L202.039 131.757L202.065 103.671L225.517 89.6675L248.943 103.749ZM249.539 132.199L249.525 103.417L225.477 88.9701L201.443 103.306L201.457 132.089L225.505 146.536L249.539 132.199Z" fill="#E5E5E4"/>
<path d="M177.726 117.925L177.7 146.01L154.249 160.014L130.823 145.933L130.848 117.847L154.305 103.943L177.726 117.925ZM178.322 146.375L178.308 117.592L154.26 103.146L130.227 117.482L130.24 146.265L154.288 160.712L178.322 146.375Z" fill="#D2D2D2"/>
<path d="M153.994 103.76L153.969 131.846L130.517 145.85L107.091 131.768L107.116 103.683L130.568 89.679L153.994 103.76ZM154.584 132.111L154.571 103.328L130.523 88.8819L106.489 103.218L106.503 132.001L130.551 146.448L154.584 132.111Z" fill="#939393"/>
<path d="M176.604 174.655C176.649 175.452 177.287 176.116 177.986 176.077C178.785 176.033 179.45 175.396 179.411 174.698C179.366 173.901 178.728 173.237 178.029 173.276C177.225 173.221 176.56 173.858 176.604 174.655Z" fill="#DBDBDB"/>
<path d="M223.585 146.243C223.541 147.245 224.39 148.097 225.494 148.135C226.498 148.179 227.352 147.332 227.39 146.23C227.434 145.229 226.585 144.377 225.481 144.338C224.483 144.394 223.629 145.241 223.585 146.243Z" fill="#F0F0F0"/>
<path d="M176.824 89.3915C176.863 90.0889 177.396 90.6588 178.095 90.6197C178.794 90.5806 179.365 90.049 179.326 89.3515C179.287 88.6541 178.754 88.0843 178.055 88.1233C177.351 88.0628 176.785 88.6941 176.824 89.3915Z" fill="#DBDBDB"/>
<path d="M130.249 117.881L106.822 103.8L83.3708 117.804L83.3453 145.889L106.771 159.971L130.223 145.967L130.249 117.881ZM106.783 103.102L130.831 117.549L130.844 146.332L106.811 160.668L82.7629 146.221L82.7494 117.439L106.783 103.102Z" fill="#D2D2D2"/>
<path d="M129.236 146.221C129.275 146.919 129.808 147.489 130.507 147.45C131.206 147.411 131.777 146.879 131.738 146.181C131.699 145.484 131.166 144.914 130.467 144.953C129.862 144.887 129.297 145.518 129.236 146.221Z" fill="#DBDBDB"/>
<path d="M57.1184 131.864C57.0857 133.065 58.1456 134.105 59.3437 134.038C60.5474 134.071 61.5898 133.013 61.5227 131.818C61.5554 130.617 60.4953 129.577 59.2972 129.644C58.0991 129.71 57.0512 130.669 57.1184 131.864Z" fill="#DBDBDB"/>
<path d="M57.3028 217.205C57.2589 218.207 58.1079 219.059 59.2118 219.097C60.2158 219.141 61.0696 218.294 61.1079 217.193C61.1518 216.191 60.3028 215.339 59.1989 215.3C58.2005 215.356 57.3467 216.203 57.3028 217.205Z" fill="#DBDBDB"/>
<path d="M57.9348 75.0506C57.9795 75.8477 58.6177 76.5116 59.3166 76.4725C60.1153 76.4279 60.7806 75.791 60.7415 75.0936C60.6967 74.2965 60.0586 73.6326 59.3597 73.6717C58.5553 73.6167 57.89 74.2536 57.9348 75.0506Z" fill="#DBDBDB"/>
<path d="M199.769 46.732C199.73 47.8335 200.685 48.7796 201.789 48.8178C202.893 48.856 203.841 47.9035 203.879 46.802C203.917 45.7005 202.963 44.7544 201.859 44.7162C200.655 44.6836 199.801 45.5308 199.769 46.732Z" fill="#E5E5E4"/>
<path d="M153.091 46.6434C153.13 47.3409 153.663 47.9107 154.361 47.8716C155.06 47.8326 155.631 47.3009 155.592 46.6035C155.553 45.9061 155.02 45.3362 154.321 45.3753C153.623 45.4144 153.051 45.946 153.091 46.6434Z" fill="#F0F0F0"/>
<path d="M104.304 103.541C104.282 104.941 105.448 106.075 106.851 106.097C108.254 106.118 109.391 104.955 109.413 103.555C109.434 102.154 108.269 101.02 106.865 100.999C105.462 100.977 104.325 102.14 104.304 103.541Z" fill="#939393"/>
</g>
</svg>
